<?xml version="1.0" encoding="UTF-8" standalone="no"?>
<!-- Created with Inkscape (http://www.inkscape.org/) -->

<svg
   width="187.90498mm"
   height="139.97005mm"
   viewBox="0 0 187.90498 139.97004"
   version="1.1"
   id="svg1"
   inkscape:export-filename="Interferometer.png"
   inkscape:export-xdpi="96"
   inkscape:export-ydpi="96"
   sodipodi:docname="Interferometer.svg"
   inkscape:version="1.4.1 (93de688d07, 2025-03-30)"
   xmlns:inkscape="http://www.inkscape.org/namespaces/inkscape"
   xmlns:sodipodi="http://sodipodi.sourceforge.net/DTD/sodipodi-0.dtd"
   xmlns="http://www.w3.org/2000/svg"
   xmlns:svg="http://www.w3.org/2000/svg">
  <sodipodi:namedview
     id="namedview1"
     pagecolor="#e1e1db"
     bordercolor="#000000"
     borderopacity="0.25"
     inkscape:showpageshadow="2"
     inkscape:pageopacity="0.0"
     inkscape:pagecheckerboard="0"
     inkscape:deskcolor="#d1d1d1"
     inkscape:document-units="mm"
     inkscape:export-bgcolor="#ffffff00"
     inkscape:zoom="1.1039267"
     inkscape:cx="397.67133"
     inkscape:cy="272.2101"
     inkscape:window-width="1916"
     inkscape:window-height="1046"
     inkscape:window-x="0"
     inkscape:window-y="0"
     inkscape:window-maximized="0"
     inkscape:current-layer="layer1" />
  <defs
     id="defs1">
    <marker
       inkscape:isstock="true"
       style="overflow:visible"
       id="marker38600-4-7"
       refX="0"
       refY="0"
       orient="auto"
       inkscape:stockid="Arrow1Mend"
       inkscape:collect="always">
      <path
         transform="matrix(-0.4,0,0,-0.4,-4,0)"
         style="fill:#d4aa00;fill-opacity:1;fill-rule:evenodd;stroke:#d4aa00;stroke-width:1pt;stroke-opacity:1"
         d="M 0,0 5,-5 -12.5,0 5,5 Z"
         id="path38598-0-7"
         inkscape:connector-curvature="0" />
    </marker>
  </defs>
  <g
     inkscape:label="Calque 1"
     inkscape:groupmode="layer"
     id="layer1"
     transform="translate(-17.045197,-78.370743)">
    <rect
       style="fill:#e1e1db;fill-opacity:1;stroke:none;stroke-width:0.2"
       id="rect1"
       width="187.90498"
       height="139.97005"
       x="17.045197"
       y="78.370743" />
    <ellipse
       style="fill:none;stroke:#0023d4;stroke-width:2.07471;stroke-miterlimit:4;stroke-dasharray:none;stroke-opacity:1"
       id="path36750"
       cx="68.302544"
       cy="121.75294"
       rx="4.1617403"
       ry="6.1504879" />
    <text
       xml:space="preserve"
       style="font-style:normal;font-weight:normal;font-size:8.29882px;line-height:1.25;font-family:sans-serif;letter-spacing:0px;word-spacing:0px;fill:#000000;fill-opacity:1;stroke:none;stroke-width:0.778014"
       x="224.54898"
       y="85.002869"
       id="text36847"
       transform="scale(0.82258863,1.2156745)"><tspan
         sodipodi:role="line"
         id="tspan36845"
         x="224.54898"
         y="85.002869"
         style="font-size:6.22413px;stroke-width:0.778014">0 1</tspan></text>
    <text
       xml:space="preserve"
       style="font-style:normal;font-weight:normal;font-size:8.29882px;line-height:1.25;font-family:sans-serif;letter-spacing:0px;word-spacing:0px;fill:#000000;fill-opacity:1;stroke:none;stroke-width:0.778014"
       x="145.41838"
       y="146.48697"
       id="text36847-0-3"
       transform="scale(0.82258863,1.2156745)"><tspan
         sodipodi:role="line"
         id="tspan36845-62-1"
         x="145.41838"
         y="146.48697"
         style="font-size:6.22413px;stroke-width:0.778014">1</tspan></text>
    <path
       style="fill:none;stroke:#ff0000;stroke-width:0.778014;stroke-linecap:butt;stroke-linejoin:miter;stroke-miterlimit:4;stroke-dasharray:none;stroke-opacity:1"
       d="m 106.16937,104.83343 c 1.86331,0 1.29563,-8.3874 1.71327,-8.3874 0.41766,0 -0.0907,8.3874 1.10766,8.3874"
       id="path26012-3-6-7-6-4-0-6"
       inkscape:connector-curvature="0"
       sodipodi:nodetypes="czc" />
    <path
       style="fill:none;stroke:#ff0000;stroke-width:0.778014;stroke-linecap:butt;stroke-linejoin:miter;stroke-miterlimit:4;stroke-dasharray:none;stroke-opacity:1"
       d="m 123.79272,104.83343 c 1.86331,0 1.29563,-8.3874 1.71329,-8.3874 0.41767,0 -0.0907,8.3874 1.10769,8.3874"
       id="path26012-3-6-7-6-0-36-8"
       inkscape:connector-curvature="0"
       sodipodi:nodetypes="czc" />
    <path
       style="fill:none;stroke:#800000;stroke-width:0.778014;stroke-linecap:butt;stroke-linejoin:miter;stroke-miterlimit:4;stroke-dasharray:none;stroke-opacity:1"
       d="m 110.59121,169.72432 c 1.86331,0 1.29563,-8.38741 1.71327,-8.38741 0.41764,0 -0.0907,8.38741 1.10764,8.38741"
       id="path26012-3-6-7-6-4-0-6-9"
       inkscape:connector-curvature="0"
       sodipodi:nodetypes="czc" />
    <path
       style="fill:none;stroke:#800000;stroke-width:0.778014;stroke-linecap:butt;stroke-linejoin:miter;stroke-miterlimit:4;stroke-dasharray:none;stroke-opacity:1"
       d="m 119.40288,169.57422 c 1.86331,0 1.29563,-18.05205 1.71327,-18.05205 0.41766,0 -0.0907,18.05205 1.10768,18.05205"
       id="path26012-3-6-7-6-3-9-1-22"
       inkscape:connector-curvature="0"
       sodipodi:nodetypes="czc" />
    <path
       style="fill:none;stroke:#800000;stroke-width:0.778014;stroke-linecap:butt;stroke-linejoin:miter;stroke-miterlimit:4;stroke-dasharray:none;stroke-opacity:1"
       d="m 128.21454,169.72432 c 1.86331,0 1.29563,-8.38741 1.71329,-8.38741 0.41767,0 -0.0907,8.38741 1.10769,8.38741"
       id="path26012-3-6-7-6-0-36-8-8"
       inkscape:connector-curvature="0"
       sodipodi:nodetypes="czc" />
    <path
       style="fill:none;stroke:#800000;stroke-width:0.778014;stroke-linecap:butt;stroke-linejoin:miter;stroke-miterlimit:4;stroke-dasharray:none;stroke-opacity:1"
       d="m 179.23708,124.45137 c 1.86331,0 1.29563,-8.38742 1.71327,-8.38742 0.41766,0 -0.0907,8.38742 1.10766,8.38742"
       id="path26012-3-6-7-6-4-0-6-9-1"
       inkscape:connector-curvature="0"
       sodipodi:nodetypes="czc" />
    <path
       style="fill:none;stroke:#800000;stroke-width:0.778014;stroke-linecap:butt;stroke-linejoin:miter;stroke-miterlimit:4;stroke-dasharray:none;stroke-opacity:1"
       d="m 188.0488,124.30127 c 1.86331,0 1.29563,-18.05205 1.71326,-18.05205 0.41767,0 -0.0907,18.05205 1.10769,18.05205"
       id="path26012-3-6-7-6-3-9-1-22-2"
       inkscape:connector-curvature="0"
       sodipodi:nodetypes="czc" />
    <path
       style="fill:none;stroke:#800000;stroke-width:0.778014;stroke-linecap:butt;stroke-linejoin:miter;stroke-miterlimit:4;stroke-dasharray:none;stroke-opacity:1"
       d="m 196.86046,124.45137 c 1.86331,0 1.29563,-8.38742 1.71329,-8.38742 0.41767,0 -0.0907,8.38742 1.10769,8.38742"
       id="path26012-3-6-7-6-0-36-8-8-9"
       inkscape:connector-curvature="0"
       sodipodi:nodetypes="czc" />
    <path
       style="fill:none;stroke:#ff0000;stroke-width:0.778014;stroke-linecap:butt;stroke-linejoin:miter;stroke-miterlimit:4;stroke-dasharray:none;stroke-opacity:1"
       d="m 21.932994,124.43993 c 1.86331,0 1.295631,-18.05205 1.713293,-18.05205 0.417662,0 -0.09071,18.05205 1.107711,18.05205"
       id="path26012-3-6-7-6-3-9-1-2"
       inkscape:connector-curvature="0"
       sodipodi:nodetypes="czc" />
    <path
       style="fill:none;stroke:#ff0000;stroke-width:0.778014;stroke-linecap:butt;stroke-linejoin:miter;stroke-miterlimit:4;stroke-dasharray:none;stroke-opacity:1"
       d="m 30.744682,124.59004 c 1.86331,0 1.295631,-18.09892 1.713318,-18.09892 0.417638,0 -0.09071,18.09892 1.107662,18.09892"
       id="path26012-3-6-7-6-0-36-8-0"
       inkscape:connector-curvature="0"
       sodipodi:nodetypes="czc" />
    <path
       style="fill:none;stroke:#ff0000;stroke-width:0.778014;stroke-linecap:butt;stroke-linejoin:miter;stroke-miterlimit:4;stroke-dasharray:none;stroke-opacity:1"
       d="m 62.455469,111.06888 c 1.86331,0 1.295631,-8.81127 1.713293,-8.81127 0.417662,0 -0.09071,8.81127 1.107686,8.81127"
       id="path26012-3-6-7-6-3-9-1-2-2"
       inkscape:connector-curvature="0"
       sodipodi:nodetypes="czc" />
    <path
       style="fill:none;stroke:#ff0000;stroke-width:0.778014;stroke-linecap:butt;stroke-linejoin:miter;stroke-miterlimit:4;stroke-dasharray:none;stroke-opacity:1"
       d="m 71.267157,111.14213 c 1.86331,0 1.295631,-8.83412 1.713293,-8.83412 0.417662,0 -0.09071,8.83412 1.107686,8.83412"
       id="path26012-3-6-7-6-0-36-8-0-3"
       inkscape:connector-curvature="0"
       sodipodi:nodetypes="czc" />
    <path
       style="fill:none;stroke:#ff0000;stroke-width:0.778014;stroke-linecap:butt;stroke-linejoin:miter;stroke-miterlimit:4;stroke-dasharray:none;stroke-opacity:1"
       d="m 70.813986,169.29164 c 1.86331,0 1.295631,-8.81127 1.713293,-8.81127 0.417662,0 -0.09071,8.81127 1.107687,8.81127"
       id="path26012-3-6-7-6-3-9-1-2-2-7"
       inkscape:connector-curvature="0"
       sodipodi:nodetypes="czc" />
    <path
       style="fill:none;stroke:#ff0000;stroke-width:0.778014;stroke-linecap:butt;stroke-linejoin:miter;stroke-miterlimit:4;stroke-dasharray:none;stroke-opacity:1"
       d="m 79.625674,169.36488 c 1.86331,0 1.295631,-8.83411 1.713293,-8.83411 0.417662,0 -0.09071,8.83411 1.107687,8.83411"
       id="path26012-3-6-7-6-0-36-8-0-3-5"
       inkscape:connector-curvature="0"
       sodipodi:nodetypes="czc" />
    <path
       style="fill:none;stroke:#ff0000;stroke-width:0.778014;stroke-linecap:butt;stroke-linejoin:miter;stroke-miterlimit:4;stroke-dasharray:none;stroke-opacity:1"
       d="m 176.40892,124.41069 c 1.86331,0 1.29563,-8.38742 1.71327,-8.38742 0.41766,0 -0.0907,8.38742 1.10766,8.38742"
       id="path26012-3-6-7-6-4-0-6-97"
       inkscape:connector-curvature="0"
       sodipodi:nodetypes="czc" />
    <path
       style="fill:none;stroke:#ff0000;stroke-width:0.778014;stroke-linecap:butt;stroke-linejoin:miter;stroke-miterlimit:4;stroke-dasharray:none;stroke-opacity:1"
       d="m 185.22063,124.26059 c 1.86331,0 1.29563,-18.05205 1.7133,-18.05205 0.41766,0 -0.0907,18.05205 1.10768,18.05205"
       id="path26012-3-6-7-6-3-9-1-3"
       inkscape:connector-curvature="0"
       sodipodi:nodetypes="czc" />
    <path
       style="fill:none;stroke:#ff0000;stroke-width:0.778014;stroke-linecap:butt;stroke-linejoin:miter;stroke-miterlimit:4;stroke-dasharray:none;stroke-opacity:1"
       d="m 194.03232,124.41069 c 1.86331,0 1.29563,-8.38742 1.71329,-8.38742 0.41767,0 -0.0907,8.38742 1.10769,8.38742"
       id="path26012-3-6-7-6-0-36-8-6"
       inkscape:connector-curvature="0"
       sodipodi:nodetypes="czc" />
    <path
       style="fill:none;stroke:#0023d4;stroke-width:2.05837;stroke-linecap:butt;stroke-linejoin:miter;stroke-miterlimit:4;stroke-dasharray:none;stroke-opacity:1"
       d="m 21.815027,127.92504 c 16.749229,0 12.767663,9.01571 23.537069,9.134 8.097645,0.089 9.025079,-5.11994 15.595948,-7.70994 2.168036,-0.85457 4.950459,-1.42406 8.807527,-1.42406"
       id="path36679-7"
       inkscape:connector-curvature="0"
       sodipodi:nodetypes="cssc" />
    <path
       style="fill:none;stroke:#0023d4;stroke-width:2.05837;stroke-linecap:butt;stroke-linejoin:miter;stroke-miterlimit:4;stroke-dasharray:none;stroke-opacity:1"
       d="m 69.299861,147.35129 c -16.74923,0 -12.767639,-9.01571 -23.537069,-9.134 -8.097621,-0.089 -9.025055,5.11994 -15.595948,7.70993 -2.168036,0.85458 -4.950459,1.42407 -8.807504,1.42407"
       id="path36679-7-2"
       inkscape:connector-curvature="0"
       sodipodi:nodetypes="cssc" />
    <path
       style="fill:none;stroke:#0023d4;stroke-width:1.30232;stroke-linecap:butt;stroke-linejoin:miter;stroke-miterlimit:4;stroke-dasharray:none;stroke-opacity:1"
       d="m 30.803243,187.00817 c 10.611083,0 8.088655,5.6967 14.91136,5.77144 5.130074,0.0562 5.717628,-3.2351 9.880448,-4.87163 1.373509,-0.53997 3.136248,-0.89981 5.579803,-0.89981"
       id="path36679-7-25"
       inkscape:connector-curvature="0"
       sodipodi:nodetypes="cssc" />
    <path
       style="fill:none;stroke:#0023d4;stroke-width:1.30232;stroke-linecap:butt;stroke-linejoin:miter;stroke-miterlimit:4;stroke-dasharray:none;stroke-opacity:1"
       d="m 60.88615,199.28291 c -10.611083,0 -8.08864,-5.6967 -14.91136,-5.77144 -5.130059,-0.0562 -5.717613,3.2351 -9.880448,4.87162 -1.373509,0.53998 -3.136248,0.89982 -5.579788,0.89982"
       id="path36679-7-2-3"
       inkscape:connector-curvature="0"
       sodipodi:nodetypes="cssc" />
    <path
       style="fill:none;stroke:#0023d4;stroke-width:2.05837;stroke-linecap:butt;stroke-linejoin:miter;stroke-miterlimit:4;stroke-dasharray:none;stroke-opacity:1"
       d="m 116.26871,147.48899 c -16.749209,0 -12.76764,-9.01572 -23.537073,-9.134 -8.09762,-0.089 -9.025055,5.11993 -15.595948,7.70997 -2.168036,0.85454 -4.950459,1.42403 -8.807503,1.42403"
       id="path36679-7-2-7"
       inkscape:connector-curvature="0"
       sodipodi:nodetypes="cssc" />
    <path
       style="fill:none;stroke:#000000;stroke-width:2.05837;stroke-linecap:butt;stroke-linejoin:miter;stroke-miterlimit:4;stroke-dasharray:none;stroke-opacity:1"
       d="m 163.89219,147.41813 c -16.74923,0 -12.76767,-9.01571 -23.53707,-9.134 -8.09762,-0.089 -9.02508,5.11994 -15.59595,7.70998 -2.16803,0.85457 -4.95046,1.42402 -8.8075,1.42402"
       id="path36679-7-2-7-2"
       inkscape:connector-curvature="0"
       sodipodi:nodetypes="cssc" />
    <path
       style="fill:none;stroke:#0023d4;stroke-width:2.09913;stroke-linecap:butt;stroke-linejoin:miter;stroke-miterlimit:4;stroke-dasharray:none;stroke-opacity:1"
       d="m 68.058157,128.1638 c 17.018382,0 12.97282,9.22801 23.915283,9.34909 8.22775,0.0911 9.1701,-5.24052 15.84654,-7.89153 2.2029,-0.87467 5.03001,-1.45756 8.94904,-1.45756"
       id="path36679-7-16"
       inkscape:connector-curvature="0"
       sodipodi:nodetypes="cssc" />
    <path
       style="fill:none;stroke:#000000;stroke-width:2.02478;stroke-linecap:butt;stroke-linejoin:miter;stroke-miterlimit:4;stroke-dasharray:none;stroke-opacity:1"
       d="m 115.01915,128.44784 c 16.61762,0 12.66733,8.79298 23.35213,8.90833 8.03395,0.0869 8.95413,-4.99343 15.47336,-7.51944 2.15101,-0.83348 4.91156,-1.38889 8.7383,-1.38889"
       id="path36679-7-16-0"
       inkscape:connector-curvature="0"
       sodipodi:nodetypes="cssc" />
    <ellipse
       style="fill:none;stroke:#0023d4;stroke-width:2.05837;stroke-miterlimit:4;stroke-dasharray:none;stroke-opacity:1"
       id="path36750-7-6"
       cx="116.37791"
       cy="124.58921"
       rx="2.5455308"
       ry="3.7619493" />
    <ellipse
       style="fill:none;stroke:#0023d4;stroke-width:1.45079;stroke-miterlimit:4;stroke-dasharray:none;stroke-opacity:1"
       id="path36750-7-6-6"
       cx="170.62733"
       cy="189.10204"
       rx="1.5311097"
       ry="3.1070402" />
    <text
       xml:space="preserve"
       style="font-style:normal;font-weight:normal;font-size:8.29882px;line-height:1.25;font-family:sans-serif;letter-spacing:0px;word-spacing:0px;fill:#000000;fill-opacity:1;stroke:none;stroke-width:0.778014"
       x="224.26703"
       y="85.03392"
       id="text36847-00"
       transform="scale(0.82258863,1.2156745)"><tspan
         sodipodi:role="line"
         id="tspan36845-4"
         x="224.26703"
         y="85.03392"
         style="font-size:6.22413px;stroke-width:0.778014">0 1</tspan></text>
    <path
       style="fill:none;stroke:#000000;stroke-width:2.05837;stroke-linecap:butt;stroke-linejoin:miter;stroke-miterlimit:4;stroke-dasharray:none;stroke-opacity:1;marker-mid:url(#marker38600-4-7)"
       d="m 161.64314,128.48476 c 13.03004,0 26.06015,0 39.09028,0"
       id="path38114-5-8"
       inkscape:connector-curvature="0"
       sodipodi:nodetypes="cc" />
    <text
       xml:space="preserve"
       style="font-style:normal;font-weight:normal;font-size:8.29882px;line-height:1.25;font-family:sans-serif;letter-spacing:0px;word-spacing:0px;fill:#000000;fill-opacity:1;stroke:none;stroke-width:0.778014"
       x="139.16624"
       y="92.476036"
       id="text36847-0-1"
       transform="scale(0.82258862,1.2156745)"><tspan
         sodipodi:role="line"
         id="tspan36845-62-3"
         x="139.16624"
         y="92.476036"
         style="font-size:6.22413px;stroke-width:0.778014">0</tspan></text>
    <text
       xml:space="preserve"
       style="font-style:normal;font-weight:normal;font-size:8.29882px;line-height:1.25;font-family:sans-serif;letter-spacing:0px;word-spacing:0px;fill:#000000;fill-opacity:1;stroke:none;stroke-width:0.778014"
       x="145.1362"
       y="146.51797"
       id="text36847-0-3-6"
       transform="scale(0.82258863,1.2156745)"><tspan
         sodipodi:role="line"
         id="tspan36845-62-1-6"
         x="145.1362"
         y="146.51797"
         style="font-size:6.22413px;stroke-width:0.778014">1</tspan></text>
    <text
       xml:space="preserve"
       style="font-style:normal;font-weight:normal;font-size:8.29882px;line-height:1.25;font-family:sans-serif;letter-spacing:0px;word-spacing:0px;white-space:pre;inline-size:17.7073;display:inline;fill:#000000;fill-opacity:1;stroke:none;stroke-width:0.778014"
       x="57.87532"
       y="171.52335"
       id="text36847-0-3-6-2"
       transform="matrix(0.82258862,0,0,1.2156745,-5.3414843,1.1391448)"
       inkscape:transform-center-x="-27.802269"
       inkscape:transform-center-y="-4.7934947"><tspan
         x="57.87532"
         y="171.52335"
         id="tspan10"><tspan
           style="font-size:6.22413px"
           id="tspan9">BS </tspan></tspan></text>
    <path
       style="fill:none;stroke:#000000;stroke-width:1.30232;stroke-linecap:butt;stroke-linejoin:miter;stroke-miterlimit:4;stroke-dasharray:none;stroke-opacity:1"
       d="m 71.831918,186.91439 c 10.611083,0 8.088655,5.6967 14.91136,5.77144 5.130074,0.0562 5.717628,-3.2351 9.880448,-4.87163 1.373509,-0.53997 3.136251,-0.89981 5.579804,-0.89981"
       id="path36679-7-25-9"
       inkscape:connector-curvature="0"
       sodipodi:nodetypes="cssc" />
    <path
       style="fill:none;stroke:#000000;stroke-width:1.30232;stroke-linecap:butt;stroke-linejoin:miter;stroke-miterlimit:4;stroke-dasharray:none;stroke-opacity:1"
       d="m 101.91483,199.18913 c -10.611088,0 -8.088645,-5.6967 -14.911365,-5.77144 -5.130059,-0.0562 -5.717613,3.2351 -9.880448,4.87162 -1.373509,0.53998 -3.136248,0.89982 -5.579788,0.89982"
       id="path36679-7-2-3-2"
       inkscape:connector-curvature="0"
       sodipodi:nodetypes="cssc" />
    <path
       style="fill:none;stroke:#0023d4;stroke-width:1.27637;stroke-linecap:butt;stroke-linejoin:miter;stroke-miterlimit:4;stroke-dasharray:none;stroke-opacity:1"
       d="m 142.71602,198.82788 c -10.19242,0 -7.76951,-5.6967 -14.32303,-5.77144 -4.92764,-0.0562 -5.49201,3.2351 -9.49059,4.87162 -1.31932,0.53998 -3.0125,0.89982 -5.35963,0.89982"
       id="path36679-7-2-3-2-7"
       inkscape:connector-curvature="0"
       sodipodi:nodetypes="cssc" />
    <path
       style="fill:none;stroke:#0023d4;stroke-width:1.27637;stroke-linecap:butt;stroke-linejoin:miter;stroke-miterlimit:4;stroke-dasharray:none;stroke-opacity:1"
       d="m 185.13021,198.81491 c -10.19242,0 -7.76951,-5.6967 -14.32303,-5.77144 -4.92764,-0.0562 -5.49201,3.2351 -9.49059,4.87162 -1.31932,0.53998 -3.0125,0.89982 -5.35963,0.89982"
       id="path36679-7-2-3-2-7-1"
       inkscape:connector-curvature="0"
       sodipodi:nodetypes="cssc" />
    <text
       xml:space="preserve"
       style="font-style:normal;font-weight:normal;font-size:8.29882px;line-height:1.25;font-family:sans-serif;letter-spacing:0px;word-spacing:0px;white-space:pre;inline-size:17.7073;display:inline;fill:#000000;fill-opacity:1;stroke:none;stroke-width:0.778014"
       x="57.87532"
       y="171.52335"
       id="text36847-0-3-6-2-0"
       transform="matrix(0.82258862,0,0,1.2156745,34.628853,1.0454541)"
       inkscape:transform-center-x="-27.802269"
       inkscape:transform-center-y="-4.7934947"><tspan
         x="57.87532"
         y="171.52335"
         id="tspan12"><tspan
           style="font-size:6.22413px"
           id="tspan11">PBS </tspan></tspan></text>
    <text
       xml:space="preserve"
       style="font-style:normal;font-weight:normal;font-size:8.29882px;line-height:1.25;font-family:sans-serif;letter-spacing:0px;word-spacing:0px;white-space:pre;inline-size:76.272;display:inline;fill:#000000;fill-opacity:1;stroke:none;stroke-width:0.778014"
       x="57.87532"
       y="171.52335"
       id="text36847-0-3-6-2-0-8"
       transform="matrix(0.82258862,0,0,1.2156745,62.678398,1.4922178)"
       inkscape:transform-center-x="-27.802269"
       inkscape:transform-center-y="-4.7934947"><tspan
         x="57.87532"
         y="171.52335"
         id="tspan14"><tspan
           style="font-size:6.22413px"
           id="tspan13">2m Delay Line</tspan></tspan></text>
    <text
       xml:space="preserve"
       style="font-style:normal;font-weight:normal;font-size:8.29882px;line-height:1.25;font-family:sans-serif;letter-spacing:0px;word-spacing:0px;white-space:pre;inline-size:76.272;display:inline;fill:#000000;fill-opacity:1;stroke:none;stroke-width:0.778014"
       x="57.87532"
       y="171.52335"
       id="text36847-0-3-6-2-0-8-1"
       transform="matrix(0.82258862,0,0,1.2156745,106.83077,1.6409375)"
       inkscape:transform-center-x="-27.802269"
       inkscape:transform-center-y="-4.7934947"><tspan
         x="57.87532"
         y="171.52335"
         id="tspan16"><tspan
           style="font-size:6.22413px"
           id="tspan15">1m Delay Line</tspan></tspan></text>
    <path
       style="fill:none;stroke:#ff0000;stroke-width:0.778014;stroke-linecap:butt;stroke-linejoin:miter;stroke-miterlimit:4;stroke-dasharray:none;stroke-opacity:1"
       d="m 114.7488,104.72104 c 1.86331,0 1.29563,-18.052031 1.71329,-18.052031 0.41766,0 -0.0907,18.052031 1.10767,18.052031"
       id="path26012-3-6-7-6-3-9-1-0"
       inkscape:connector-curvature="0"
       sodipodi:nodetypes="czc" />
    <path
       style="fill:none;stroke:#800000;stroke-width:0.778014;stroke-linecap:butt;stroke-linejoin:miter;stroke-miterlimit:4;stroke-dasharray:none;stroke-opacity:1"
       d="m 179.00466,124.48908 c 1.86331,0 1.29563,-8.38741 1.71327,-8.38741 0.41763,0 -0.0907,8.38741 1.10763,8.38741"
       id="path26012-3-6-7-6-4-0-6-9-1-4"
       inkscape:connector-curvature="0"
       sodipodi:nodetypes="czc" />
    <path
       style="fill:none;stroke:#800000;stroke-width:0.778014;stroke-linecap:butt;stroke-linejoin:miter;stroke-miterlimit:4;stroke-dasharray:none;stroke-opacity:1"
       d="m 187.81632,124.33898 c 1.86331,0 1.29563,-18.05205 1.71327,-18.05205 0.41766,0 -0.0907,18.05205 1.10769,18.05205"
       id="path26012-3-6-7-6-3-9-1-22-2-4"
       inkscape:connector-curvature="0"
       sodipodi:nodetypes="czc" />
    <path
       style="fill:none;stroke:#800000;stroke-width:0.778014;stroke-linecap:butt;stroke-linejoin:miter;stroke-miterlimit:4;stroke-dasharray:none;stroke-opacity:1"
       d="m 196.62798,124.48908 c 1.86331,0 1.29564,-8.38741 1.7133,-8.38741 0.41766,0 -0.0907,8.38741 1.10768,8.38741"
       id="path26012-3-6-7-6-0-36-8-8-9-8"
       inkscape:connector-curvature="0"
       sodipodi:nodetypes="czc" />
    <path
       style="fill:none;stroke:#ff0000;stroke-width:0.778014;stroke-linecap:butt;stroke-linejoin:miter;stroke-miterlimit:4;stroke-dasharray:none;stroke-opacity:1"
       d="m 176.17649,124.4484 c 1.86331,0 1.29563,-8.38741 1.71327,-8.38741 0.41766,0 -0.0907,8.38741 1.10766,8.38741"
       id="path26012-3-6-7-6-4-0-6-97-2"
       inkscape:connector-curvature="0"
       sodipodi:nodetypes="czc" />
    <path
       style="fill:none;stroke:#ff0000;stroke-width:0.778014;stroke-linecap:butt;stroke-linejoin:miter;stroke-miterlimit:4;stroke-dasharray:none;stroke-opacity:1"
       d="m 184.98816,124.2983 c 1.86331,0 1.29563,-18.05205 1.71329,-18.05205 0.41766,0 -0.0907,18.05205 1.10769,18.05205"
       id="path26012-3-6-7-6-3-9-1-3-0"
       inkscape:connector-curvature="0"
       sodipodi:nodetypes="czc" />
    <path
       style="fill:none;stroke:#ff0000;stroke-width:0.778014;stroke-linecap:butt;stroke-linejoin:miter;stroke-miterlimit:4;stroke-dasharray:none;stroke-opacity:1"
       d="m 193.79985,124.4484 c 1.86331,0 1.29563,-8.38741 1.71329,-8.38741 0.41766,0 -0.0907,8.38741 1.10768,8.38741"
       id="path26012-3-6-7-6-0-36-8-6-4"
       inkscape:connector-curvature="0"
       sodipodi:nodetypes="czc" />
    <ellipse
       style="fill:none;stroke:#0023d4;stroke-width:1.41811;stroke-miterlimit:4;stroke-dasharray:none;stroke-opacity:1"
       id="path36750-4"
       cx="128.32523"
       cy="188.1953"
       rx="2.6924813"
       ry="4.4415541" />
  </g>
</svg>
