<?xml version="1.0" encoding="UTF-8" standalone="no"?>
<!-- Created with Inkscape (http://www.inkscape.org/) -->

<svg
   width="179.37407mm"
   height="136.41206mm"
   viewBox="0 0 179.37407 136.41206"
   version="1.1"
   id="svg1"
   inkscape:export-filename="Interferometer.png"
   inkscape:export-xdpi="96"
   inkscape:export-ydpi="96"
   sodipodi:docname="Interferometer.svg"
   inkscape:version="1.3 (0e150ed6c4, 2023-07-21)"
   xmlns:inkscape="http://www.inkscape.org/namespaces/inkscape"
   xmlns:sodipodi="http://sodipodi.sourceforge.net/DTD/sodipodi-0.dtd"
   xmlns="http://www.w3.org/2000/svg"
   xmlns:svg="http://www.w3.org/2000/svg">
  <sodipodi:namedview
     id="namedview1"
     pagecolor="#ffffff"
     bordercolor="#000000"
     borderopacity="0.25"
     inkscape:showpageshadow="2"
     inkscape:pageopacity="0.0"
     inkscape:pagecheckerboard="0"
     inkscape:deskcolor="#d1d1d1"
     inkscape:document-units="mm"
     inkscape:export-bgcolor="#ffffff00"
     inkscape:zoom="1.1039267"
     inkscape:cx="397.2184"
     inkscape:cy="271.30425"
     inkscape:window-width="1920"
     inkscape:window-height="1094"
     inkscape:window-x="-11"
     inkscape:window-y="-11"
     inkscape:window-maximized="1"
     inkscape:current-layer="layer1" />
  <defs
     id="defs1">
    <marker
       inkscape:isstock="true"
       style="overflow:visible"
       id="marker38600-4-7"
       refX="0"
       refY="0"
       orient="auto"
       inkscape:stockid="Arrow1Mend"
       inkscape:collect="always">
      <path
         transform="matrix(-0.4,0,0,-0.4,-4,0)"
         style="fill:#d4aa00;fill-opacity:1;fill-rule:evenodd;stroke:#d4aa00;stroke-width:1pt;stroke-opacity:1"
         d="M 0,0 5,-5 -12.5,0 5,5 Z"
         id="path38598-0-7"
         inkscape:connector-curvature="0" />
    </marker>
  </defs>
  <g
     inkscape:label="Calque 1"
     inkscape:groupmode="layer"
     id="layer1"
     transform="translate(-17.284871,-78.610418)">
    <ellipse
       style="fill:none;stroke:#0023d4;stroke-width:2.07471;stroke-miterlimit:4;stroke-dasharray:none;stroke-opacity:1"
       id="path36750"
       cx="64.228073"
       cy="114.08335"
       rx="4.1617403"
       ry="6.1504879" />
    <text
       xml:space="preserve"
       style="font-style:normal;font-weight:normal;font-size:8.29882px;line-height:1.25;font-family:sans-serif;letter-spacing:0px;word-spacing:0px;fill:#000000;fill-opacity:1;stroke:none;stroke-width:0.778014"
       x="219.59575"
       y="78.693947"
       id="text36847"
       transform="scale(0.82258864,1.2156745)"><tspan
         sodipodi:role="line"
         id="tspan36845"
         x="219.59575"
         y="78.693947"
         style="font-size:6.22413px;stroke-width:0.778014">0 1</tspan></text>
    <text
       xml:space="preserve"
       style="font-style:normal;font-weight:normal;font-size:8.29882px;line-height:1.25;font-family:sans-serif;letter-spacing:0px;word-spacing:0px;fill:#000000;fill-opacity:1;stroke:none;stroke-width:0.778014"
       x="140.46515"
       y="140.17805"
       id="text36847-0-3"
       transform="scale(0.82258864,1.2156745)"><tspan
         sodipodi:role="line"
         id="tspan36845-62-1"
         x="140.46515"
         y="140.17805"
         style="font-size:6.22413px;stroke-width:0.778014">1</tspan></text>
    <path
       style="fill:none;stroke:#ff0000;stroke-width:0.778014;stroke-linecap:butt;stroke-linejoin:miter;stroke-miterlimit:4;stroke-dasharray:none;stroke-opacity:1"
       d="m 102.0949,97.163838 c 1.86331,0 1.29563,-8.387399 1.71327,-8.387399 0.41766,0 -0.0907,8.387399 1.10766,8.387399"
       id="path26012-3-6-7-6-4-0-6"
       inkscape:connector-curvature="0"
       sodipodi:nodetypes="czc" />
    <path
       style="fill:none;stroke:#ff0000;stroke-width:0.778014;stroke-linecap:butt;stroke-linejoin:miter;stroke-miterlimit:4;stroke-dasharray:none;stroke-opacity:1"
       d="m 119.71825,97.163838 c 1.86331,0 1.29563,-8.387399 1.71329,-8.387399 0.41767,0 -0.0907,8.387399 1.10769,8.387399"
       id="path26012-3-6-7-6-0-36-8"
       inkscape:connector-curvature="0"
       sodipodi:nodetypes="czc" />
    <path
       style="fill:none;stroke:#800000;stroke-width:0.778014;stroke-linecap:butt;stroke-linejoin:miter;stroke-miterlimit:4;stroke-dasharray:none;stroke-opacity:1"
       d="m 106.51674,162.05473 c 1.86331,0 1.29563,-8.38741 1.71327,-8.38741 0.41764,0 -0.0907,8.38741 1.10764,8.38741"
       id="path26012-3-6-7-6-4-0-6-9"
       inkscape:connector-curvature="0"
       sodipodi:nodetypes="czc" />
    <path
       style="fill:none;stroke:#800000;stroke-width:0.778014;stroke-linecap:butt;stroke-linejoin:miter;stroke-miterlimit:4;stroke-dasharray:none;stroke-opacity:1"
       d="m 115.32841,161.90463 c 1.86331,0 1.29563,-18.05205 1.71327,-18.05205 0.41766,0 -0.0907,18.05205 1.10768,18.05205"
       id="path26012-3-6-7-6-3-9-1-22"
       inkscape:connector-curvature="0"
       sodipodi:nodetypes="czc" />
    <path
       style="fill:none;stroke:#800000;stroke-width:0.778014;stroke-linecap:butt;stroke-linejoin:miter;stroke-miterlimit:4;stroke-dasharray:none;stroke-opacity:1"
       d="m 124.14007,162.05473 c 1.86331,0 1.29563,-8.38741 1.71329,-8.38741 0.41767,0 -0.0907,8.38741 1.10769,8.38741"
       id="path26012-3-6-7-6-0-36-8-8"
       inkscape:connector-curvature="0"
       sodipodi:nodetypes="czc" />
    <path
       style="fill:none;stroke:#800000;stroke-width:0.778014;stroke-linecap:butt;stroke-linejoin:miter;stroke-miterlimit:4;stroke-dasharray:none;stroke-opacity:1"
       d="m 175.16261,116.78178 c 1.86331,0 1.29563,-8.38742 1.71327,-8.38742 0.41766,0 -0.0907,8.38742 1.10766,8.38742"
       id="path26012-3-6-7-6-4-0-6-9-1"
       inkscape:connector-curvature="0"
       sodipodi:nodetypes="czc" />
    <path
       style="fill:none;stroke:#800000;stroke-width:0.778014;stroke-linecap:butt;stroke-linejoin:miter;stroke-miterlimit:4;stroke-dasharray:none;stroke-opacity:1"
       d="m 183.97433,116.63168 c 1.86331,0 1.29563,-18.052051 1.71326,-18.052051 0.41767,0 -0.0907,18.052051 1.10769,18.052051"
       id="path26012-3-6-7-6-3-9-1-22-2"
       inkscape:connector-curvature="0"
       sodipodi:nodetypes="czc" />
    <path
       style="fill:none;stroke:#800000;stroke-width:0.778014;stroke-linecap:butt;stroke-linejoin:miter;stroke-miterlimit:4;stroke-dasharray:none;stroke-opacity:1"
       d="m 192.78599,116.78178 c 1.86331,0 1.29563,-8.38742 1.71329,-8.38742 0.41767,0 -0.0907,8.38742 1.10769,8.38742"
       id="path26012-3-6-7-6-0-36-8-8-9"
       inkscape:connector-curvature="0"
       sodipodi:nodetypes="czc" />
    <path
       style="fill:none;stroke:#ff0000;stroke-width:0.778014;stroke-linecap:butt;stroke-linejoin:miter;stroke-miterlimit:4;stroke-dasharray:none;stroke-opacity:1"
       d="m 17.858524,116.77034 c 1.86331,0 1.295631,-18.052047 1.713293,-18.052047 0.417662,0 -0.09071,18.052047 1.107711,18.052047"
       id="path26012-3-6-7-6-3-9-1-2"
       inkscape:connector-curvature="0"
       sodipodi:nodetypes="czc" />
    <path
       style="fill:none;stroke:#ff0000;stroke-width:0.778014;stroke-linecap:butt;stroke-linejoin:miter;stroke-miterlimit:4;stroke-dasharray:none;stroke-opacity:1"
       d="m 26.670212,116.92045 c 1.86331,0 1.295631,-18.098919 1.713318,-18.098919 0.417638,0 -0.09071,18.098919 1.107662,18.098919"
       id="path26012-3-6-7-6-0-36-8-0"
       inkscape:connector-curvature="0"
       sodipodi:nodetypes="czc" />
    <path
       style="fill:none;stroke:#ff0000;stroke-width:0.778014;stroke-linecap:butt;stroke-linejoin:miter;stroke-miterlimit:4;stroke-dasharray:none;stroke-opacity:1"
       d="m 58.380999,103.39929 c 1.86331,0 1.295631,-8.811272 1.713293,-8.811272 0.417662,0 -0.09071,8.811272 1.107686,8.811272"
       id="path26012-3-6-7-6-3-9-1-2-2"
       inkscape:connector-curvature="0"
       sodipodi:nodetypes="czc" />
    <path
       style="fill:none;stroke:#ff0000;stroke-width:0.778014;stroke-linecap:butt;stroke-linejoin:miter;stroke-miterlimit:4;stroke-dasharray:none;stroke-opacity:1"
       d="m 67.192687,103.47254 c 1.86331,0 1.295631,-8.834119 1.713293,-8.834119 0.417662,0 -0.09071,8.834119 1.107686,8.834119"
       id="path26012-3-6-7-6-0-36-8-0-3"
       inkscape:connector-curvature="0"
       sodipodi:nodetypes="czc" />
    <path
       style="fill:none;stroke:#ff0000;stroke-width:0.778014;stroke-linecap:butt;stroke-linejoin:miter;stroke-miterlimit:4;stroke-dasharray:none;stroke-opacity:1"
       d="m 66.739516,161.62205 c 1.86331,0 1.295631,-8.81127 1.713293,-8.81127 0.417662,0 -0.09071,8.81127 1.107687,8.81127"
       id="path26012-3-6-7-6-3-9-1-2-2-7"
       inkscape:connector-curvature="0"
       sodipodi:nodetypes="czc" />
    <path
       style="fill:none;stroke:#ff0000;stroke-width:0.778014;stroke-linecap:butt;stroke-linejoin:miter;stroke-miterlimit:4;stroke-dasharray:none;stroke-opacity:1"
       d="m 75.551204,161.69529 c 1.86331,0 1.295631,-8.83411 1.713293,-8.83411 0.417662,0 -0.09071,8.83411 1.107687,8.83411"
       id="path26012-3-6-7-6-0-36-8-0-3-5"
       inkscape:connector-curvature="0"
       sodipodi:nodetypes="czc" />
    <path
       style="fill:none;stroke:#ff0000;stroke-width:0.778014;stroke-linecap:butt;stroke-linejoin:miter;stroke-miterlimit:4;stroke-dasharray:none;stroke-opacity:1"
       d="m 172.33445,116.7411 c 1.86331,0 1.29563,-8.38742 1.71327,-8.38742 0.41766,0 -0.0907,8.38742 1.10766,8.38742"
       id="path26012-3-6-7-6-4-0-6-97"
       inkscape:connector-curvature="0"
       sodipodi:nodetypes="czc" />
    <path
       style="fill:none;stroke:#ff0000;stroke-width:0.778014;stroke-linecap:butt;stroke-linejoin:miter;stroke-miterlimit:4;stroke-dasharray:none;stroke-opacity:1"
       d="m 181.14616,116.591 c 1.86331,0 1.29563,-18.052051 1.7133,-18.052051 0.41766,0 -0.0907,18.052051 1.10768,18.052051"
       id="path26012-3-6-7-6-3-9-1-3"
       inkscape:connector-curvature="0"
       sodipodi:nodetypes="czc" />
    <path
       style="fill:none;stroke:#ff0000;stroke-width:0.778014;stroke-linecap:butt;stroke-linejoin:miter;stroke-miterlimit:4;stroke-dasharray:none;stroke-opacity:1"
       d="m 189.95785,116.7411 c 1.86331,0 1.29563,-8.38742 1.71329,-8.38742 0.41767,0 -0.0907,8.38742 1.10769,8.38742"
       id="path26012-3-6-7-6-0-36-8-6"
       inkscape:connector-curvature="0"
       sodipodi:nodetypes="czc" />
    <path
       style="fill:none;stroke:#0023d4;stroke-width:2.05837;stroke-linecap:butt;stroke-linejoin:miter;stroke-miterlimit:4;stroke-dasharray:none;stroke-opacity:1"
       d="m 17.740557,120.25545 c 16.749229,0 12.767663,9.01571 23.537069,9.134 8.097645,0.089 9.025079,-5.11994 15.595948,-7.70994 2.168036,-0.85457 4.950459,-1.42406 8.807527,-1.42406"
       id="path36679-7"
       inkscape:connector-curvature="0"
       sodipodi:nodetypes="cssc" />
    <path
       style="fill:none;stroke:#0023d4;stroke-width:2.05837;stroke-linecap:butt;stroke-linejoin:miter;stroke-miterlimit:4;stroke-dasharray:none;stroke-opacity:1"
       d="m 65.225391,139.6817 c -16.74923,0 -12.767639,-9.01571 -23.537069,-9.134 -8.097621,-0.089 -9.025055,5.11994 -15.595948,7.70993 -2.168036,0.85458 -4.950459,1.42407 -8.807504,1.42407"
       id="path36679-7-2"
       inkscape:connector-curvature="0"
       sodipodi:nodetypes="cssc" />
    <path
       style="fill:none;stroke:#0023d4;stroke-width:1.30232;stroke-linecap:butt;stroke-linejoin:miter;stroke-miterlimit:4;stroke-dasharray:none;stroke-opacity:1"
       d="m 26.728773,179.33858 c 10.611083,0 8.088655,5.6967 14.91136,5.77144 5.130074,0.0562 5.717628,-3.2351 9.880448,-4.87163 1.373509,-0.53997 3.136248,-0.89981 5.579803,-0.89981"
       id="path36679-7-25"
       inkscape:connector-curvature="0"
       sodipodi:nodetypes="cssc" />
    <path
       style="fill:none;stroke:#0023d4;stroke-width:1.30232;stroke-linecap:butt;stroke-linejoin:miter;stroke-miterlimit:4;stroke-dasharray:none;stroke-opacity:1"
       d="m 56.81168,191.61332 c -10.611083,0 -8.08864,-5.6967 -14.91136,-5.77144 -5.130059,-0.0562 -5.717613,3.2351 -9.880448,4.87162 -1.373509,0.53998 -3.136248,0.89982 -5.579788,0.89982"
       id="path36679-7-2-3"
       inkscape:connector-curvature="0"
       sodipodi:nodetypes="cssc" />
    <path
       style="fill:none;stroke:#0023d4;stroke-width:2.05837;stroke-linecap:butt;stroke-linejoin:miter;stroke-miterlimit:4;stroke-dasharray:none;stroke-opacity:1"
       d="m 112.19424,139.8194 c -16.749209,0 -12.767643,-9.01572 -23.537073,-9.134 -8.09762,-0.089 -9.025055,5.11993 -15.595948,7.70997 -2.168036,0.85454 -4.950459,1.42403 -8.807503,1.42403"
       id="path36679-7-2-7"
       inkscape:connector-curvature="0"
       sodipodi:nodetypes="cssc" />
    <path
       style="fill:none;stroke:#000000;stroke-width:2.05837;stroke-linecap:butt;stroke-linejoin:miter;stroke-miterlimit:4;stroke-dasharray:none;stroke-opacity:1"
       d="m 159.81772,139.74854 c -16.74923,0 -12.76767,-9.01571 -23.53707,-9.134 -8.09762,-0.089 -9.02508,5.11994 -15.59595,7.70998 -2.16803,0.85457 -4.95046,1.42402 -8.8075,1.42402"
       id="path36679-7-2-7-2"
       inkscape:connector-curvature="0"
       sodipodi:nodetypes="cssc" />
    <path
       style="fill:none;stroke:#0023d4;stroke-width:2.09913;stroke-linecap:butt;stroke-linejoin:miter;stroke-miterlimit:4;stroke-dasharray:none;stroke-opacity:1"
       d="m 63.983687,120.49421 c 17.018382,0 12.97282,9.22801 23.915283,9.34909 8.227747,0.0911 9.170098,-5.24052 15.84654,-7.89153 2.2029,-0.87467 5.03001,-1.45756 8.94904,-1.45756"
       id="path36679-7-16"
       inkscape:connector-curvature="0"
       sodipodi:nodetypes="cssc" />
    <path
       style="fill:none;stroke:#000000;stroke-width:2.02478;stroke-linecap:butt;stroke-linejoin:miter;stroke-miterlimit:4;stroke-dasharray:none;stroke-opacity:1"
       d="m 110.94468,120.77825 c 16.61762,0 12.66733,8.79298 23.35213,8.90833 8.03395,0.0869 8.95413,-4.99343 15.47336,-7.51944 2.15101,-0.83348 4.91156,-1.38889 8.7383,-1.38889"
       id="path36679-7-16-0"
       inkscape:connector-curvature="0"
       sodipodi:nodetypes="cssc" />
    <ellipse
       style="fill:none;stroke:#0023d4;stroke-width:2.05837;stroke-miterlimit:4;stroke-dasharray:none;stroke-opacity:1"
       id="path36750-7-6"
       cx="112.30344"
       cy="116.91962"
       rx="2.5455308"
       ry="3.7619493" />
    <ellipse
       style="fill:none;stroke:#0023d4;stroke-width:1.45079;stroke-miterlimit:4;stroke-dasharray:none;stroke-opacity:1"
       id="path36750-7-6-6"
       cx="166.55287"
       cy="181.43245"
       rx="1.5311097"
       ry="3.1070402" />
    <text
       xml:space="preserve"
       style="font-style:normal;font-weight:normal;font-size:8.29882px;line-height:1.25;font-family:sans-serif;letter-spacing:0px;word-spacing:0px;fill:#000000;fill-opacity:1;stroke:none;stroke-width:0.778014"
       x="219.3138"
       y="78.724998"
       id="text36847-00"
       transform="scale(0.82258864,1.2156745)"><tspan
         sodipodi:role="line"
         id="tspan36845-4"
         x="219.3138"
         y="78.724998"
         style="font-size:6.22413px;stroke-width:0.778014">0 1</tspan></text>
    <path
       style="fill:none;stroke:#000000;stroke-width:2.05837;stroke-linecap:butt;stroke-linejoin:miter;stroke-miterlimit:4;stroke-dasharray:none;stroke-opacity:1;marker-mid:url(#marker38600-4-7)"
       d="m 157.56867,120.81517 c 13.03004,0 26.06015,0 39.09028,0"
       id="path38114-5-8"
       inkscape:connector-curvature="0"
       sodipodi:nodetypes="cc" />
    <text
       xml:space="preserve"
       style="font-style:normal;font-weight:normal;font-size:8.29882px;line-height:1.25;font-family:sans-serif;letter-spacing:0px;word-spacing:0px;fill:#000000;fill-opacity:1;stroke:none;stroke-width:0.778014"
       x="134.21301"
       y="86.167114"
       id="text36847-0-1"
       transform="scale(0.82258862,1.2156745)"><tspan
         sodipodi:role="line"
         id="tspan36845-62-3"
         x="134.21301"
         y="86.167114"
         style="font-size:6.22413px;stroke-width:0.778014">0</tspan></text>
    <text
       xml:space="preserve"
       style="font-style:normal;font-weight:normal;font-size:8.29882px;line-height:1.25;font-family:sans-serif;letter-spacing:0px;word-spacing:0px;fill:#000000;fill-opacity:1;stroke:none;stroke-width:0.778014"
       x="140.18297"
       y="140.20906"
       id="text36847-0-3-6"
       transform="scale(0.82258864,1.2156745)"><tspan
         sodipodi:role="line"
         id="tspan36845-62-1-6"
         x="140.18297"
         y="140.20906"
         style="font-size:6.22413px;stroke-width:0.778014">1</tspan></text>
    <text
       xml:space="preserve"
       style="font-style:normal;font-weight:normal;font-size:8.29882px;line-height:1.25;font-family:sans-serif;letter-spacing:0px;word-spacing:0px;white-space:pre;inline-size:17.7073;display:inline;fill:#000000;fill-opacity:1;stroke:none;stroke-width:0.778014"
       x="57.87532"
       y="171.52335"
       id="text36847-0-3-6-2"
       transform="matrix(0.82258862,0,0,1.2156745,-9.4159547,-6.5304465)"
       inkscape:transform-center-x="-27.802269"
       inkscape:transform-center-y="-4.7934947"><tspan
         x="57.87532"
         y="171.52335"
         id="tspan9"><tspan
           style="font-size:6.22413px"
           id="tspan3">BS </tspan></tspan></text>
    <path
       style="fill:none;stroke:#000000;stroke-width:1.30232;stroke-linecap:butt;stroke-linejoin:miter;stroke-miterlimit:4;stroke-dasharray:none;stroke-opacity:1"
       d="m 67.757448,179.2448 c 10.611083,0 8.088655,5.6967 14.91136,5.77144 5.130074,0.0562 5.717628,-3.2351 9.880448,-4.87163 1.373509,-0.53997 3.136251,-0.89981 5.579806,-0.89981"
       id="path36679-7-25-9"
       inkscape:connector-curvature="0"
       sodipodi:nodetypes="cssc" />
    <path
       style="fill:none;stroke:#000000;stroke-width:1.30232;stroke-linecap:butt;stroke-linejoin:miter;stroke-miterlimit:4;stroke-dasharray:none;stroke-opacity:1"
       d="m 97.840355,191.51954 c -10.611083,0 -8.08864,-5.6967 -14.91136,-5.77144 -5.130059,-0.0562 -5.717613,3.2351 -9.880448,4.87162 -1.373509,0.53998 -3.136248,0.89982 -5.579788,0.89982"
       id="path36679-7-2-3-2"
       inkscape:connector-curvature="0"
       sodipodi:nodetypes="cssc" />
    <path
       style="fill:none;stroke:#0023d4;stroke-width:1.27637;stroke-linecap:butt;stroke-linejoin:miter;stroke-miterlimit:4;stroke-dasharray:none;stroke-opacity:1"
       d="m 138.64155,191.15829 c -10.19242,0 -7.76951,-5.6967 -14.32303,-5.77144 -4.92764,-0.0562 -5.49201,3.2351 -9.49059,4.87162 -1.31932,0.53998 -3.0125,0.89982 -5.35963,0.89982"
       id="path36679-7-2-3-2-7"
       inkscape:connector-curvature="0"
       sodipodi:nodetypes="cssc" />
    <path
       style="fill:none;stroke:#0023d4;stroke-width:1.27637;stroke-linecap:butt;stroke-linejoin:miter;stroke-miterlimit:4;stroke-dasharray:none;stroke-opacity:1"
       d="m 181.05574,191.14532 c -10.19242,0 -7.76951,-5.6967 -14.32303,-5.77144 -4.92764,-0.0562 -5.49201,3.2351 -9.49059,4.87162 -1.31932,0.53998 -3.0125,0.89982 -5.35963,0.89982"
       id="path36679-7-2-3-2-7-1"
       inkscape:connector-curvature="0"
       sodipodi:nodetypes="cssc" />
    <text
       xml:space="preserve"
       style="font-style:normal;font-weight:normal;font-size:8.29882px;line-height:1.25;font-family:sans-serif;letter-spacing:0px;word-spacing:0px;white-space:pre;inline-size:17.7073;display:inline;fill:#000000;fill-opacity:1;stroke:none;stroke-width:0.778014"
       x="57.87532"
       y="171.52335"
       id="text36847-0-3-6-2-0"
       transform="matrix(0.82258862,0,0,1.2156745,30.554383,-6.6241372)"
       inkscape:transform-center-x="-27.802269"
       inkscape:transform-center-y="-4.7934947"><tspan
         x="57.87532"
         y="171.52335"
         id="tspan11"><tspan
           style="font-size:6.22413px"
           id="tspan10">PBS </tspan></tspan></text>
    <text
       xml:space="preserve"
       style="font-style:normal;font-weight:normal;font-size:8.29882px;line-height:1.25;font-family:sans-serif;letter-spacing:0px;word-spacing:0px;white-space:pre;inline-size:76.272;display:inline;fill:#000000;fill-opacity:1;stroke:none;stroke-width:0.778014"
       x="57.87532"
       y="171.52335"
       id="text36847-0-3-6-2-0-8"
       transform="matrix(0.82258862,0,0,1.2156745,58.603928,-6.1773735)"
       inkscape:transform-center-x="-27.802269"
       inkscape:transform-center-y="-4.7934947"><tspan
         x="57.87532"
         y="171.52335"
         id="tspan13"><tspan
           style="font-size:6.22413px"
           id="tspan12">2m Delay Line</tspan></tspan></text>
    <text
       xml:space="preserve"
       style="font-style:normal;font-weight:normal;font-size:8.29882px;line-height:1.25;font-family:sans-serif;letter-spacing:0px;word-spacing:0px;white-space:pre;inline-size:76.272;display:inline;fill:#000000;fill-opacity:1;stroke:none;stroke-width:0.778014"
       x="57.87532"
       y="171.52335"
       id="text36847-0-3-6-2-0-8-1"
       transform="matrix(0.82258862,0,0,1.2156745,102.7563,-6.0286538)"
       inkscape:transform-center-x="-27.802269"
       inkscape:transform-center-y="-4.7934947"><tspan
         x="57.87532"
         y="171.52335"
         id="tspan15"><tspan
           style="font-size:6.22413px"
           id="tspan14">1m Delay Line</tspan></tspan></text>
    <path
       style="fill:none;stroke:#ff0000;stroke-width:0.778014;stroke-linecap:butt;stroke-linejoin:miter;stroke-miterlimit:4;stroke-dasharray:none;stroke-opacity:1"
       d="m 110.67433,97.051448 c 1.86331,0 1.29563,-18.05203 1.71329,-18.05203 0.41766,0 -0.0907,18.05203 1.10767,18.05203"
       id="path26012-3-6-7-6-3-9-1-0"
       inkscape:connector-curvature="0"
       sodipodi:nodetypes="czc" />
    <path
       style="fill:none;stroke:#800000;stroke-width:0.778014;stroke-linecap:butt;stroke-linejoin:miter;stroke-miterlimit:4;stroke-dasharray:none;stroke-opacity:1"
       d="m 174.93019,116.81949 c 1.86331,0 1.29563,-8.38741 1.71327,-8.38741 0.41763,0 -0.0907,8.38741 1.10763,8.38741"
       id="path26012-3-6-7-6-4-0-6-9-1-4"
       inkscape:connector-curvature="0"
       sodipodi:nodetypes="czc" />
    <path
       style="fill:none;stroke:#800000;stroke-width:0.778014;stroke-linecap:butt;stroke-linejoin:miter;stroke-miterlimit:4;stroke-dasharray:none;stroke-opacity:1"
       d="m 183.74185,116.66939 c 1.86331,0 1.29563,-18.052047 1.71327,-18.052047 0.41766,0 -0.0907,18.052047 1.10769,18.052047"
       id="path26012-3-6-7-6-3-9-1-22-2-4"
       inkscape:connector-curvature="0"
       sodipodi:nodetypes="czc" />
    <path
       style="fill:none;stroke:#800000;stroke-width:0.778014;stroke-linecap:butt;stroke-linejoin:miter;stroke-miterlimit:4;stroke-dasharray:none;stroke-opacity:1"
       d="m 192.55351,116.81949 c 1.86331,0 1.29564,-8.38741 1.7133,-8.38741 0.41766,0 -0.0907,8.38741 1.10768,8.38741"
       id="path26012-3-6-7-6-0-36-8-8-9-8"
       inkscape:connector-curvature="0"
       sodipodi:nodetypes="czc" />
    <path
       style="fill:none;stroke:#ff0000;stroke-width:0.778014;stroke-linecap:butt;stroke-linejoin:miter;stroke-miterlimit:4;stroke-dasharray:none;stroke-opacity:1"
       d="m 172.10202,116.77881 c 1.86331,0 1.29563,-8.38741 1.71327,-8.38741 0.41766,0 -0.0907,8.38741 1.10766,8.38741"
       id="path26012-3-6-7-6-4-0-6-97-2"
       inkscape:connector-curvature="0"
       sodipodi:nodetypes="czc" />
    <path
       style="fill:none;stroke:#ff0000;stroke-width:0.778014;stroke-linecap:butt;stroke-linejoin:miter;stroke-miterlimit:4;stroke-dasharray:none;stroke-opacity:1"
       d="m 180.91369,116.62871 c 1.86331,0 1.29563,-18.052048 1.71329,-18.052048 0.41766,0 -0.0907,18.052048 1.10769,18.052048"
       id="path26012-3-6-7-6-3-9-1-3-0"
       inkscape:connector-curvature="0"
       sodipodi:nodetypes="czc" />
    <path
       style="fill:none;stroke:#ff0000;stroke-width:0.778014;stroke-linecap:butt;stroke-linejoin:miter;stroke-miterlimit:4;stroke-dasharray:none;stroke-opacity:1"
       d="m 189.72538,116.77881 c 1.86331,0 1.29563,-8.38741 1.71329,-8.38741 0.41766,0 -0.0907,8.38741 1.10768,8.38741"
       id="path26012-3-6-7-6-0-36-8-6-4"
       inkscape:connector-curvature="0"
       sodipodi:nodetypes="czc" />
    <ellipse
       style="fill:none;stroke:#0023d4;stroke-width:1.41811;stroke-miterlimit:4;stroke-dasharray:none;stroke-opacity:1"
       id="path36750-4"
       cx="124.25076"
       cy="180.52571"
       rx="2.6924813"
       ry="4.4415541" />
  </g>
</svg>
